<svg width="14" height="14" viewBox="0 0 14 14" fill="none" xmlns="http://www.w3.org/2000/svg">
<path fill-rule="evenodd" clip-rule="evenodd" d="M0.499999 3C0.499999 1.61929 1.61929 0.5 3 0.5H13C13.2022 0.5 13.3845 0.621821 13.4619 0.808658C13.5393 0.995495 13.4966 1.21055 13.3536 1.35355L6.20711 8.5H8.5V8C8.5 7.72386 8.72386 7.5 9 7.5C9.27614 7.5 9.5 7.72386 9.5 8V9C9.5 9.27614 9.27614 9.5 9 9.5H5.20711L4.20711 10.5H10C10.2761 10.5 10.5 10.2761 10.5 10V6H11.5V10C11.5 10.8284 10.8284 11.5 10 11.5H3.20711L2.20711 12.5H11C11.8284 12.5 12.5 11.8284 12.5 11V4C12.5 3.72386 12.7239 3.5 13 3.5C13.2761 3.5 13.5 3.72386 13.5 4V11C13.5 12.3807 12.3807 13.5 11 13.5H0.999999C0.797768 13.5 0.61545 13.3782 0.53806 13.1913C0.460669 13.0045 0.503447 12.7894 0.646446 12.6464L7.79289 5.5H5.5V6C5.5 6.27614 5.27614 6.5 5 6.5C4.72386 6.5 4.5 6.27614 4.5 6V5C4.5 4.72386 4.72386 4.5 5 4.5H8.79289L9.79289 3.5H4C3.72386 3.5 3.5 3.72386 3.5 4V8C3.5 8.27614 3.27614 8.5 3 8.5C2.72386 8.5 2.5 8.27614 2.5 8V4C2.5 3.17157 3.17157 2.5 4 2.5H10.7929L11.7929 1.5H3C2.17157 1.5 1.5 2.17157 1.5 3V10C1.5 10.2761 1.27614 10.5 0.999999 10.5C0.723857 10.5 0.499999 10.2761 0.499999 10V3Z" fill="#00D1FF"/>
<path fill-rule="evenodd" clip-rule="evenodd" d="M13.3536 3.64645C13.5488 3.84171 13.5488 4.15829 13.3536 4.35355L9.35355 8.35355L8.64645 7.64645L12.6464 3.64645C12.8417 3.45118 13.1583 3.45118 13.3536 3.64645ZM5.35355 6.35355L1.35355 10.3536C1.15829 10.5488 0.841708 10.5488 0.646446 10.3536C0.451184 10.1583 0.451184 9.84171 0.646446 9.64645L4.64645 5.64645L5.35355 6.35355Z" fill="#00D1FF"/>
</svg>
